<?xml version="1.0" encoding="utf-8"?>
<svg id="master-artboard" viewBox="0 0 1008.5472412109375 683.6318969726562" version="1.1" xmlns="http://www.w3.org/2000/svg" x="0px" y="0px" style="enable-background:new 0 0 1400 980;" width="1008.5472412109375px" height="683.6318969726562px"><defs><linearGradient id="paint0_linear_16_339" x1="-12.4348" y1="91.2145" x2="228.124" y2="92.098" gradientUnits="userSpaceOnUse">
<stop stop-color="#AA367C"/>
<stop offset="1" stop-color="#4A2FBD"/>
</linearGradient></defs><rect id="ee-background" x="0" y="0" width="1008.5472412109375" height="683.6318969726562" style="fill: white; fill-opacity: 0; pointer-events: none;"/>


<g transform="matrix(3.351136749865962, 0, 0, 3.351136749865962, 162.4576416015625, 0)"><path d="M187.639 69.9021C193.092 67.8586 199.226 70.6143 200.696 76.2484C206.238 97.4863 204.802 120.051 196.436 140.546C186.737 164.31 168.435 183.543 145.182 194.409C121.928 205.275 95.4333 206.975 70.9821 199.169C46.5309 191.364 25.9211 174.628 13.2642 152.299C0.607328 129.97 -3.16618 103.69 2.6965 78.7016C8.55918 53.7134 23.627 31.854 44.8941 17.4842C66.1612 3.11439 92.0641 -2.7094 117.435 1.17464C139.317 4.52444 159.415 14.8827 174.791 30.5466C178.869 34.702 178.083 41.3805 173.529 45.009C168.975 48.6374 162.385 47.8272 158.195 43.7832C146.212 32.2155 130.877 24.5642 114.244 22.0179C94.1181 18.9368 73.5701 23.5566 56.6994 34.9558C39.8288 46.355 27.8758 63.6955 23.2251 83.518C18.5744 103.34 21.5679 124.188 31.6082 141.901C41.6486 159.614 57.9979 172.89 77.3943 179.082C96.7908 185.274 117.809 183.925 136.255 175.305C154.701 166.686 169.219 151.429 176.914 132.578C183.273 116.999 184.584 99.9117 180.815 83.688C179.497 78.0164 182.187 71.9457 187.639 69.9021Z" fill="url(#paint0_linear_16_339)" style="fill: rgb(237, 255, 255); fill-opacity: 0.89;"/><path d="M 65.30824279785156 103.26919555664062 C 65.30824279785156 107.42252349853516 64.43157196044922 110.5258560180664 62.67823791503906 112.57919311523438 C 60.93157196044922 114.62586212158203 58.28157043457031 115.6491928100586 54.728240966796875 115.6491928100586 C 53.481571197509766 115.6491928100586 52.53490447998047 115.58252716064453 51.88823699951172 115.44918823242188 L 51.88823699951172 111.86919403076172 C 52.69490432739258 112.0691909790039 53.54157257080078 112.169189453125 54.42823791503906 112.169189453125 C 55.921573638916016 112.169189453125 57.14823913574219 111.95252227783203 58.108238220214844 111.51919555664062 C 59.0682373046875 111.07919311523438 59.80490493774414 110.38919067382812 60.3182373046875 109.44918823242188 C 60.82490539550781 108.51586151123047 61.11824035644531 107.22586059570312 61.198238372802734 105.57919311523438 L 61.01823806762695 105.57919311523438 C 60.46490478515625 106.48585510253906 59.821571350097656 107.11919403076172 59.08823776245117 107.47919464111328 C 58.35490417480469 107.84585571289062 57.44157409667969 108.02919006347656 56.34823989868164 108.02919006347656 C 54.5149040222168 108.02919006347656 53.0682373046875 107.4425277709961 52.00823974609375 106.26919555664062 C 50.948238372802734 105.08918762207031 50.41823959350586 103.44918823242188 50.41823959350586 101.34918975830078 C 50.41823959350586 99.08918762207031 51.06157302856445 97.30586242675781 52.34823989868164 95.99919128417969 C 53.628238677978516 94.68585968017578 55.37490463256836 94.02919006347656 57.58823776245117 94.02919006347656 C 59.14823913574219 94.02919006347656 60.511573791503906 94.39252471923828 61.67823791503906 95.11919403076172 C 62.844905853271484 95.85252380371094 63.741573333740234 96.91252136230469 64.36824035644531 98.2991943359375 C 64.99490356445312 99.6925277709961 65.30824279785156 101.34918975830078 65.30824279785156 103.26919555664062 M 57.67823791503906 97.59918975830078 C 56.75157165527344 97.59918975830078 56.02824020385742 97.919189453125 55.50823974609375 98.55918884277344 C 54.98823928833008 99.1925277709961 54.728240966796875 100.1058578491211 54.728240966796875 101.2991943359375 C 54.728240966796875 102.3191909790039 54.96490478515625 103.1258544921875 55.43824005126953 103.71919250488281 C 55.91157150268555 104.3125228881836 56.628238677978516 104.60919189453125 57.58823776245117 104.60919189453125 C 58.494903564453125 104.60919189453125 59.26823806762695 104.31585693359375 59.90823745727539 103.72919464111328 C 60.55490493774414 103.13585662841797 60.878238677978516 102.45585632324219 60.878238677978516 101.68919372558594 C 60.878238677978516 100.54252624511719 60.57823944091797 99.57585906982422 59.978240966796875 98.78919219970703 C 59.378238677978516 97.99585723876953 58.611572265625 97.59918975830078 57.67823791503906 97.59918975830078 ZM 74.77674102783203 93.99919128417969 C 76.79674530029297 93.99919128417969 78.42340850830078 94.45919036865234 79.65674591064453 95.37919616699219 C 80.89674377441406 96.29252624511719 81.5167465209961 97.52919006347656 81.5167465209961 99.08918762207031 C 81.5167465209961 100.169189453125 81.21674346923828 101.12919616699219 80.61674499511719 101.96919250488281 C 80.02340698242188 102.80918884277344 79.06340789794922 103.55918884277344 77.73674011230469 104.21919250488281 C 79.31007385253906 105.06585693359375 80.44341278076172 105.94918823242188 81.1367416381836 106.86919403076172 C 81.82341003417969 107.78919219970703 82.166748046875 108.79586029052734 82.166748046875 109.88919067382812 C 82.166748046875 111.62252807617188 81.48674011230469 113.01586151123047 80.12674713134766 114.0691909790039 C 78.77340698242188 115.12252807617188 76.99007415771484 115.6491928100586 74.77674102783203 115.6491928100586 C 72.47007751464844 115.6491928100586 70.65674591064453 115.15919494628906 69.33674621582031 114.17919158935547 C 68.02340698242188 113.19918823242188 67.36674499511719 111.80918884277344 67.36674499511719 110.00919342041016 C 67.36674499511719 108.80918884277344 67.6867446899414 107.74252319335938 68.32674407958984 106.80918884277344 C 68.96674346923828 105.8758544921875 69.993408203125 105.05252838134766 71.40674591064453 104.33918762207031 C 70.20008087158203 103.57919311523438 69.33341217041016 102.76586151123047 68.80674743652344 101.8991928100586 C 68.28007507324219 101.03252410888672 68.0167465209961 100.08586120605469 68.0167465209961 99.05918884277344 C 68.0167465209961 97.55252075195312 68.64007568359375 96.33252716064453 69.8867416381836 95.3991928100586 C 71.14007568359375 94.46585845947266 72.77008056640625 93.99919128417969 74.77674102783203 93.99919128417969 M 71.48674011230469 109.74919128417969 C 71.48674011230469 110.57585906982422 71.77674102783203 111.21919250488281 72.35674285888672 111.67919158935547 C 72.9300765991211 112.13919067382812 73.71674346923828 112.36919403076172 74.71674346923828 112.36919403076172 C 75.82341003417969 112.36919403076172 76.65341186523438 112.13252258300781 77.20674133300781 111.65919494628906 C 77.75341033935547 111.18585968017578 78.02674102783203 110.55918884277344 78.02674102783203 109.77919006347656 C 78.02674102783203 109.13252258300781 77.75341033935547 108.52919006347656 77.20674133300781 107.96919250488281 C 76.666748046875 107.40252685546875 75.7867431640625 106.80252838134766 74.56674194335938 106.169189453125 C 72.51341247558594 107.11585998535156 71.48674011230469 108.30918884277344 71.48674011230469 109.74919128417969 M 74.74674224853516 97.25919342041016 C 73.98674011230469 97.25919342041016 73.3734130859375 97.45252990722656 72.90674591064453 97.83918762207031 C 72.44007873535156 98.23252868652344 72.20674133300781 98.755859375 72.20674133300781 99.40919494628906 C 72.20674133300781 99.98252868652344 72.3934097290039 100.49919128417969 72.7667465209961 100.95919036865234 C 73.14007568359375 101.41252136230469 73.81007385253906 101.87919616699219 74.77674102783203 102.35919189453125 C 75.7234115600586 101.919189453125 76.38340759277344 101.46919250488281 76.75674438476562 101.00919342041016 C 77.13008117675781 100.5491943359375 77.31674194335938 100.01586151123047 77.31674194335938 99.40919494628906 C 77.31674194335938 98.74252319335938 77.07674407958984 98.21919250488281 76.59674072265625 97.83918762207031 C 76.11674499511719 97.45252990722656 75.50007629394531 97.25919342041016 74.74674224853516 97.25919342041016 ZM 87.72525024414062 100.58918762207031 C 87.72525024414062 101.80918884277344 87.83525085449219 102.71919250488281 88.05525207519531 103.3191909790039 C 88.26858520507812 103.919189453125 88.61524963378906 104.21919250488281 89.09524536132812 104.21919250488281 C 90.02191925048828 104.21919250488281 90.4852523803711 103.00919342041016 90.4852523803711 100.58918762207031 C 90.4852523803711 98.18252563476562 90.02191925048828 96.97919464111328 89.09524536132812 96.97919464111328 C 88.61524963378906 96.97919464111328 88.26858520507812 97.2758560180664 88.05525207519531 97.86919403076172 C 87.83525085449219 98.4625244140625 87.72525024414062 99.36919403076172 87.72525024414062 100.58918762207031 M 94.11524963378906 100.55918884277344 C 94.11524963378906 102.77252197265625 93.68858337402344 104.43252563476562 92.83525085449219 105.53919219970703 C 91.98191833496094 106.65252685546875 90.72525024414062 107.20919036865234 89.06524658203125 107.20919036865234 C 87.47858428955078 107.20919036865234 86.2552490234375 106.63919067382812 85.39524841308594 105.49919128417969 C 84.52857971191406 104.35919189453125 84.09525299072266 102.7125244140625 84.09525299072266 100.55918884277344 C 84.09525299072266 96.16586303710938 85.75191497802734 93.96919250488281 89.06524658203125 93.96919250488281 C 90.6919174194336 93.96919250488281 91.9419174194336 94.53919219970703 92.81524658203125 95.67919158935547 C 93.68191528320312 96.8191909790039 94.11524963378906 98.44586181640625 94.11524963378906 100.55918884277344 M 104.04524993896484 94.26919555664062 L 92.34524536132812 115.35919189453125 L 88.88524627685547 115.35919189453125 L 100.58525085449219 94.26919555664062 L 104.04524993896484 94.26919555664062 M 102.49524688720703 109.00919342041016 C 102.49524688720703 110.23585510253906 102.6052474975586 111.1491928100586 102.82524871826172 111.74919128417969 C 103.03858184814453 112.34918975830078 103.38525390625 112.6491928100586 103.86524963378906 112.6491928100586 C 104.79191589355469 112.6491928100586 105.2552490234375 111.43585968017578 105.2552490234375 109.00919342041016 C 105.2552490234375 106.60919189453125 104.79191589355469 105.40919494628906 103.86524963378906 105.40919494628906 C 103.38525390625 105.40919494628906 103.03858184814453 105.70252227783203 102.82524871826172 106.28919219970703 C 102.6052474975586 106.88252258300781 102.49524688720703 107.78919219970703 102.49524688720703 109.00919342041016 M 108.88525390625 108.97919464111328 C 108.88525390625 111.18585968017578 108.45858001708984 112.84252166748047 107.6052474975586 113.94918823242188 C 106.75191497802734 115.0625228881836 105.49524688720703 115.61919403076172 103.83525085449219 115.61919403076172 C 102.24858093261719 115.61919403076172 101.02525329589844 115.0491943359375 100.16525268554688 113.90919494628906 C 99.298583984375 112.76919555664062 98.86524963378906 111.12586212158203 98.86524963378906 108.97919464111328 C 98.86524963378906 104.58586120605469 100.52191162109375 102.38919067382812 103.83525085449219 102.38919067382812 C 105.4619140625 102.38919067382812 106.7119140625 102.95919036865234 107.58525085449219 104.09918975830078 C 108.45191955566406 105.23918914794922 108.88525390625 106.86585998535156 108.88525390625 108.97919464111328 Z" transform="matrix(1, 0, 0, 1, 23.27570152282715, -3.282467842102051)" style="fill: rgb(250, 255, 251); white-space: pre; color: rgb(51, 51, 51); fill-opacity: 0.95;"/></g></svg>